<mxfile host="app.diagrams.net" modified="2024-04-15T17:12:40.653Z" agent="Mozilla/5.0 (Windows NT 10.0; Win64; x64) AppleWebKit/537.36 (KHTML, like Gecko) Chrome/123.0.0.0 Safari/537.36" etag="GsrH6ZFQbC5T_GJRbxM1" version="24.2.5" type="device">
  <diagram name="Page-1" id="1stZAQOMI5tIhSHPDVud">
    <mxGraphModel dx="1235" dy="614" grid="1" gridSize="10" guides="1" tooltips="1" connect="1" arrows="1" fold="1" page="1" pageScale="1" pageWidth="850" pageHeight="1100" math="0" shadow="0">
      <root>
        <mxCell id="0" />
        <mxCell id="1" parent="0" />
        <mxCell id="RW9XZ7OsWW9reIedTihO-2" value="" style="rounded=0;whiteSpace=wrap;html=1;" vertex="1" parent="1">
          <mxGeometry x="210" y="30" width="410" height="1300" as="geometry" />
        </mxCell>
        <mxCell id="RW9XZ7OsWW9reIedTihO-3" value="Instagram" style="rounded=0;whiteSpace=wrap;html=1;" vertex="1" parent="1">
          <mxGeometry x="210" y="30" width="410" height="30" as="geometry" />
        </mxCell>
        <mxCell id="RW9XZ7OsWW9reIedTihO-4" value="" style="ellipse;whiteSpace=wrap;html=1;aspect=fixed;" vertex="1" parent="1">
          <mxGeometry x="70" y="130" width="40" height="40" as="geometry" />
        </mxCell>
        <mxCell id="RW9XZ7OsWW9reIedTihO-5" value="" style="endArrow=none;html=1;rounded=0;entryX=0.5;entryY=1;entryDx=0;entryDy=0;" edge="1" parent="1" target="RW9XZ7OsWW9reIedTihO-4">
          <mxGeometry width="50" height="50" relative="1" as="geometry">
            <mxPoint x="90" y="280" as="sourcePoint" />
            <mxPoint x="510" y="230" as="targetPoint" />
            <Array as="points">
              <mxPoint x="90" y="220" />
            </Array>
          </mxGeometry>
        </mxCell>
        <mxCell id="RW9XZ7OsWW9reIedTihO-82" value="User" style="edgeLabel;html=1;align=center;verticalAlign=middle;resizable=0;points=[];" vertex="1" connectable="0" parent="RW9XZ7OsWW9reIedTihO-5">
          <mxGeometry x="0.6218" relative="1" as="geometry">
            <mxPoint as="offset" />
          </mxGeometry>
        </mxCell>
        <mxCell id="RW9XZ7OsWW9reIedTihO-6" value="" style="endArrow=none;html=1;rounded=0;" edge="1" parent="1">
          <mxGeometry width="50" height="50" relative="1" as="geometry">
            <mxPoint x="20" y="210" as="sourcePoint" />
            <mxPoint x="160" y="210" as="targetPoint" />
          </mxGeometry>
        </mxCell>
        <mxCell id="RW9XZ7OsWW9reIedTihO-7" value="" style="endArrow=none;html=1;rounded=0;" edge="1" parent="1">
          <mxGeometry width="50" height="50" relative="1" as="geometry">
            <mxPoint x="40" y="330" as="sourcePoint" />
            <mxPoint x="90" y="280" as="targetPoint" />
          </mxGeometry>
        </mxCell>
        <mxCell id="RW9XZ7OsWW9reIedTihO-8" value="" style="endArrow=none;html=1;rounded=0;" edge="1" parent="1">
          <mxGeometry width="50" height="50" relative="1" as="geometry">
            <mxPoint x="90" y="280" as="sourcePoint" />
            <mxPoint x="130" y="330" as="targetPoint" />
          </mxGeometry>
        </mxCell>
        <mxCell id="RW9XZ7OsWW9reIedTihO-9" value="Automatic content filtering" style="ellipse;whiteSpace=wrap;html=1;" vertex="1" parent="1">
          <mxGeometry x="480" y="70" width="120" height="50" as="geometry" />
        </mxCell>
        <mxCell id="RW9XZ7OsWW9reIedTihO-10" value="Adding captions" style="ellipse;whiteSpace=wrap;html=1;" vertex="1" parent="1">
          <mxGeometry x="480" y="420" width="120" height="50" as="geometry" />
        </mxCell>
        <mxCell id="RW9XZ7OsWW9reIedTihO-11" value="Block sensitive content" style="ellipse;whiteSpace=wrap;html=1;" vertex="1" parent="1">
          <mxGeometry x="480" y="140" width="120" height="50" as="geometry" />
        </mxCell>
        <mxCell id="RW9XZ7OsWW9reIedTihO-12" value="Block accounts" style="ellipse;whiteSpace=wrap;html=1;" vertex="1" parent="1">
          <mxGeometry x="480" y="210" width="120" height="50" as="geometry" />
        </mxCell>
        <mxCell id="RW9XZ7OsWW9reIedTihO-13" value="Hastags" style="ellipse;whiteSpace=wrap;html=1;" vertex="1" parent="1">
          <mxGeometry x="480" y="280" width="120" height="50" as="geometry" />
        </mxCell>
        <mxCell id="RW9XZ7OsWW9reIedTihO-14" value="Post photos, videos" style="ellipse;whiteSpace=wrap;html=1;" vertex="1" parent="1">
          <mxGeometry x="480" y="350" width="120" height="50" as="geometry" />
        </mxCell>
        <mxCell id="RW9XZ7OsWW9reIedTihO-18" value="Show what the user is doing" style="ellipse;whiteSpace=wrap;html=1;" vertex="1" parent="1">
          <mxGeometry x="480" y="490" width="120" height="50" as="geometry" />
        </mxCell>
        <mxCell id="RW9XZ7OsWW9reIedTihO-19" value="Liking posts" style="ellipse;whiteSpace=wrap;html=1;" vertex="1" parent="1">
          <mxGeometry x="480" y="840" width="120" height="50" as="geometry" />
        </mxCell>
        <mxCell id="RW9XZ7OsWW9reIedTihO-20" value="Liking the video" style="ellipse;whiteSpace=wrap;html=1;" vertex="1" parent="1">
          <mxGeometry x="480" y="560" width="120" height="50" as="geometry" />
        </mxCell>
        <mxCell id="RW9XZ7OsWW9reIedTihO-21" value="Commenting live&lt;div&gt;&lt;br&gt;&lt;/div&gt;" style="ellipse;whiteSpace=wrap;html=1;" vertex="1" parent="1">
          <mxGeometry x="480" y="630" width="120" height="50" as="geometry" />
        </mxCell>
        <mxCell id="RW9XZ7OsWW9reIedTihO-22" value="Voice, video call, message" style="ellipse;whiteSpace=wrap;html=1;" vertex="1" parent="1">
          <mxGeometry x="480" y="700" width="120" height="50" as="geometry" />
        </mxCell>
        <mxCell id="RW9XZ7OsWW9reIedTihO-23" value="Commenting on posts" style="ellipse;whiteSpace=wrap;html=1;" vertex="1" parent="1">
          <mxGeometry x="480" y="770" width="120" height="50" as="geometry" />
        </mxCell>
        <mxCell id="RW9XZ7OsWW9reIedTihO-24" value="View for sale items" style="ellipse;whiteSpace=wrap;html=1;" vertex="1" parent="1">
          <mxGeometry x="480" y="910" width="120" height="50" as="geometry" />
        </mxCell>
        <mxCell id="RW9XZ7OsWW9reIedTihO-25" value="Search for posts about a place" style="ellipse;whiteSpace=wrap;html=1;" vertex="1" parent="1">
          <mxGeometry x="480" y="1260" width="120" height="50" as="geometry" />
        </mxCell>
        <mxCell id="RW9XZ7OsWW9reIedTihO-26" value="Share items via message" style="ellipse;whiteSpace=wrap;html=1;" vertex="1" parent="1">
          <mxGeometry x="480" y="980" width="120" height="50" as="geometry" />
        </mxCell>
        <mxCell id="RW9XZ7OsWW9reIedTihO-27" value="Redirect to website" style="ellipse;whiteSpace=wrap;html=1;" vertex="1" parent="1">
          <mxGeometry x="480" y="1050" width="120" height="50" as="geometry" />
        </mxCell>
        <mxCell id="RW9XZ7OsWW9reIedTihO-28" value="Search for hashtag" style="ellipse;whiteSpace=wrap;html=1;" vertex="1" parent="1">
          <mxGeometry x="480" y="1120" width="120" height="50" as="geometry" />
        </mxCell>
        <mxCell id="RW9XZ7OsWW9reIedTihO-29" value="Search for account" style="ellipse;whiteSpace=wrap;html=1;" vertex="1" parent="1">
          <mxGeometry x="480" y="1190" width="120" height="50" as="geometry" />
        </mxCell>
        <mxCell id="RW9XZ7OsWW9reIedTihO-36" style="edgeStyle=orthogonalEdgeStyle;rounded=0;orthogonalLoop=1;jettySize=auto;html=1;entryX=0;entryY=0.5;entryDx=0;entryDy=0;" edge="1" parent="1" source="RW9XZ7OsWW9reIedTihO-30" target="RW9XZ7OsWW9reIedTihO-9">
          <mxGeometry relative="1" as="geometry">
            <Array as="points">
              <mxPoint x="380" y="165" />
              <mxPoint x="380" y="95" />
            </Array>
          </mxGeometry>
        </mxCell>
        <mxCell id="RW9XZ7OsWW9reIedTihO-37" value="&amp;lt;&amp;lt;Extends&amp;gt;&amp;gt;" style="edgeLabel;html=1;align=center;verticalAlign=middle;resizable=0;points=[];" vertex="1" connectable="0" parent="RW9XZ7OsWW9reIedTihO-36">
          <mxGeometry x="0.0042" y="-1" relative="1" as="geometry">
            <mxPoint x="40" y="-1" as="offset" />
          </mxGeometry>
        </mxCell>
        <mxCell id="RW9XZ7OsWW9reIedTihO-38" style="edgeStyle=orthogonalEdgeStyle;rounded=0;orthogonalLoop=1;jettySize=auto;html=1;entryX=0;entryY=0.5;entryDx=0;entryDy=0;" edge="1" parent="1" source="RW9XZ7OsWW9reIedTihO-30" target="RW9XZ7OsWW9reIedTihO-11">
          <mxGeometry relative="1" as="geometry" />
        </mxCell>
        <mxCell id="RW9XZ7OsWW9reIedTihO-46" value="&amp;lt;&amp;lt;Extends&amp;gt;&amp;gt;" style="edgeLabel;html=1;align=center;verticalAlign=middle;resizable=0;points=[];" vertex="1" connectable="0" parent="RW9XZ7OsWW9reIedTihO-38">
          <mxGeometry x="0.11" relative="1" as="geometry">
            <mxPoint x="-2" as="offset" />
          </mxGeometry>
        </mxCell>
        <mxCell id="RW9XZ7OsWW9reIedTihO-39" style="edgeStyle=orthogonalEdgeStyle;rounded=0;orthogonalLoop=1;jettySize=auto;html=1;entryX=0;entryY=0.5;entryDx=0;entryDy=0;" edge="1" parent="1" source="RW9XZ7OsWW9reIedTihO-30" target="RW9XZ7OsWW9reIedTihO-12">
          <mxGeometry relative="1" as="geometry">
            <Array as="points">
              <mxPoint x="380" y="165" />
              <mxPoint x="380" y="235" />
            </Array>
          </mxGeometry>
        </mxCell>
        <mxCell id="RW9XZ7OsWW9reIedTihO-43" value="&amp;lt;&amp;lt;Extends&amp;gt;&amp;gt;" style="edgeLabel;html=1;align=center;verticalAlign=middle;resizable=0;points=[];" vertex="1" connectable="0" parent="RW9XZ7OsWW9reIedTihO-39">
          <mxGeometry x="0.0379" y="4" relative="1" as="geometry">
            <mxPoint x="36" y="4" as="offset" />
          </mxGeometry>
        </mxCell>
        <mxCell id="RW9XZ7OsWW9reIedTihO-30" value="Filter Content" style="ellipse;whiteSpace=wrap;html=1;" vertex="1" parent="1">
          <mxGeometry x="240" y="140" width="120" height="50" as="geometry" />
        </mxCell>
        <mxCell id="RW9XZ7OsWW9reIedTihO-31" value="&lt;span style=&quot;font-size:11.0pt;line-height:107%;&lt;br/&gt;font-family:&amp;quot;Calibri&amp;quot;,sans-serif;mso-ascii-theme-font:minor-latin;mso-fareast-font-family:&lt;br/&gt;Calibri;mso-fareast-theme-font:minor-latin;mso-hansi-theme-font:minor-latin;&lt;br/&gt;mso-bidi-font-family:&amp;quot;Times New Roman&amp;quot;;mso-bidi-theme-font:minor-bidi;&lt;br/&gt;mso-ansi-language:EN-ZA;mso-fareast-language:EN-US;mso-bidi-language:AR-SA&quot;&gt;share&lt;br/&gt;content&lt;/span&gt;" style="ellipse;whiteSpace=wrap;html=1;" vertex="1" parent="1">
          <mxGeometry x="240" y="350" width="120" height="50" as="geometry" />
        </mxCell>
        <mxCell id="RW9XZ7OsWW9reIedTihO-32" value="&lt;span style=&quot;font-size:11.0pt;line-height:107%;&lt;br/&gt;font-family:&amp;quot;Calibri&amp;quot;,sans-serif;mso-ascii-theme-font:minor-latin;mso-fareast-font-family:&lt;br/&gt;Calibri;mso-fareast-theme-font:minor-latin;mso-hansi-theme-font:minor-latin;&lt;br/&gt;mso-bidi-font-family:&amp;quot;Times New Roman&amp;quot;;mso-bidi-theme-font:minor-bidi;&lt;br/&gt;mso-ansi-language:EN-ZA;mso-fareast-language:EN-US;mso-bidi-language:AR-SA&quot;&gt;IGTV&lt;br/&gt;and live stories&lt;/span&gt;" style="ellipse;whiteSpace=wrap;html=1;" vertex="1" parent="1">
          <mxGeometry x="240" y="560" width="120" height="50" as="geometry" />
        </mxCell>
        <mxCell id="RW9XZ7OsWW9reIedTihO-33" value="&lt;span style=&quot;font-size:11.0pt;line-height:107%;&lt;br/&gt;font-family:&amp;quot;Calibri&amp;quot;,sans-serif;mso-ascii-theme-font:minor-latin;mso-fareast-font-family:&lt;br/&gt;Calibri;mso-fareast-theme-font:minor-latin;mso-hansi-theme-font:minor-latin;&lt;br/&gt;mso-bidi-font-family:&amp;quot;Times New Roman&amp;quot;;mso-bidi-theme-font:minor-bidi;&lt;br/&gt;mso-ansi-language:EN-ZA;mso-fareast-language:EN-US;mso-bidi-language:AR-SA&quot;&gt;Direct&lt;br/&gt;communication&lt;/span&gt;" style="ellipse;whiteSpace=wrap;html=1;" vertex="1" parent="1">
          <mxGeometry x="240" y="770" width="120" height="50" as="geometry" />
        </mxCell>
        <mxCell id="RW9XZ7OsWW9reIedTihO-34" value="&lt;span style=&quot;font-size:11.0pt;line-height:107%;&lt;br/&gt;font-family:&amp;quot;Calibri&amp;quot;,sans-serif;mso-ascii-theme-font:minor-latin;mso-fareast-font-family:&lt;br/&gt;Calibri;mso-fareast-theme-font:minor-latin;mso-hansi-theme-font:minor-latin;&lt;br/&gt;mso-bidi-font-family:&amp;quot;Times New Roman&amp;quot;;mso-bidi-theme-font:minor-bidi;&lt;br/&gt;mso-ansi-language:EN-ZA;mso-fareast-language:EN-US;mso-bidi-language:AR-SA&quot;&gt;shop&lt;/span&gt;" style="ellipse;whiteSpace=wrap;html=1;" vertex="1" parent="1">
          <mxGeometry x="240" y="980" width="120" height="50" as="geometry" />
        </mxCell>
        <mxCell id="RW9XZ7OsWW9reIedTihO-35" value="&lt;span style=&quot;font-size:11.0pt;line-height:107%;&lt;br/&gt;font-family:&amp;quot;Calibri&amp;quot;,sans-serif;mso-ascii-theme-font:minor-latin;mso-fareast-font-family:&lt;br/&gt;Calibri;mso-fareast-theme-font:minor-latin;mso-hansi-theme-font:minor-latin;&lt;br/&gt;mso-bidi-font-family:&amp;quot;Times New Roman&amp;quot;;mso-bidi-theme-font:minor-bidi;&lt;br/&gt;mso-ansi-language:EN-ZA;mso-fareast-language:EN-US;mso-bidi-language:AR-SA&quot;&gt;search&lt;/span&gt;" style="ellipse;whiteSpace=wrap;html=1;" vertex="1" parent="1">
          <mxGeometry x="240" y="1190" width="120" height="50" as="geometry" />
        </mxCell>
        <mxCell id="RW9XZ7OsWW9reIedTihO-47" style="edgeStyle=orthogonalEdgeStyle;rounded=0;orthogonalLoop=1;jettySize=auto;html=1;entryX=0;entryY=0.5;entryDx=0;entryDy=0;" edge="1" parent="1">
          <mxGeometry relative="1" as="geometry">
            <mxPoint x="360" y="375" as="sourcePoint" />
            <mxPoint x="480" y="305" as="targetPoint" />
            <Array as="points">
              <mxPoint x="380" y="375" />
              <mxPoint x="380" y="305" />
            </Array>
          </mxGeometry>
        </mxCell>
        <mxCell id="RW9XZ7OsWW9reIedTihO-48" value="&amp;lt;&amp;lt;Extends&amp;gt;&amp;gt;" style="edgeLabel;html=1;align=center;verticalAlign=middle;resizable=0;points=[];" vertex="1" connectable="0" parent="RW9XZ7OsWW9reIedTihO-47">
          <mxGeometry x="0.0042" y="-1" relative="1" as="geometry">
            <mxPoint x="40" y="-1" as="offset" />
          </mxGeometry>
        </mxCell>
        <mxCell id="RW9XZ7OsWW9reIedTihO-49" style="edgeStyle=orthogonalEdgeStyle;rounded=0;orthogonalLoop=1;jettySize=auto;html=1;entryX=0;entryY=0.5;entryDx=0;entryDy=0;" edge="1" parent="1">
          <mxGeometry relative="1" as="geometry">
            <mxPoint x="360" y="375" as="sourcePoint" />
            <mxPoint x="480" y="375" as="targetPoint" />
          </mxGeometry>
        </mxCell>
        <mxCell id="RW9XZ7OsWW9reIedTihO-50" value="&amp;lt;&amp;lt;Extends&amp;gt;&amp;gt;" style="edgeLabel;html=1;align=center;verticalAlign=middle;resizable=0;points=[];" vertex="1" connectable="0" parent="RW9XZ7OsWW9reIedTihO-49">
          <mxGeometry x="0.11" relative="1" as="geometry">
            <mxPoint x="-2" as="offset" />
          </mxGeometry>
        </mxCell>
        <mxCell id="RW9XZ7OsWW9reIedTihO-51" style="edgeStyle=orthogonalEdgeStyle;rounded=0;orthogonalLoop=1;jettySize=auto;html=1;entryX=0;entryY=0.5;entryDx=0;entryDy=0;" edge="1" parent="1">
          <mxGeometry relative="1" as="geometry">
            <mxPoint x="360" y="375" as="sourcePoint" />
            <mxPoint x="480" y="445" as="targetPoint" />
            <Array as="points">
              <mxPoint x="380" y="375" />
              <mxPoint x="380" y="445" />
            </Array>
          </mxGeometry>
        </mxCell>
        <mxCell id="RW9XZ7OsWW9reIedTihO-52" value="&amp;lt;&amp;lt;Extends&amp;gt;&amp;gt;" style="edgeLabel;html=1;align=center;verticalAlign=middle;resizable=0;points=[];" vertex="1" connectable="0" parent="RW9XZ7OsWW9reIedTihO-51">
          <mxGeometry x="0.0379" y="4" relative="1" as="geometry">
            <mxPoint x="36" y="4" as="offset" />
          </mxGeometry>
        </mxCell>
        <mxCell id="RW9XZ7OsWW9reIedTihO-53" style="edgeStyle=orthogonalEdgeStyle;rounded=0;orthogonalLoop=1;jettySize=auto;html=1;entryX=0;entryY=0.5;entryDx=0;entryDy=0;" edge="1" parent="1">
          <mxGeometry relative="1" as="geometry">
            <mxPoint x="360" y="1215" as="sourcePoint" />
            <mxPoint x="480" y="1145" as="targetPoint" />
            <Array as="points">
              <mxPoint x="380" y="1215" />
              <mxPoint x="380" y="1145" />
            </Array>
          </mxGeometry>
        </mxCell>
        <mxCell id="RW9XZ7OsWW9reIedTihO-54" value="&amp;lt;&amp;lt;Extends&amp;gt;&amp;gt;" style="edgeLabel;html=1;align=center;verticalAlign=middle;resizable=0;points=[];" vertex="1" connectable="0" parent="RW9XZ7OsWW9reIedTihO-53">
          <mxGeometry x="0.0042" y="-1" relative="1" as="geometry">
            <mxPoint x="40" y="-1" as="offset" />
          </mxGeometry>
        </mxCell>
        <mxCell id="RW9XZ7OsWW9reIedTihO-55" style="edgeStyle=orthogonalEdgeStyle;rounded=0;orthogonalLoop=1;jettySize=auto;html=1;entryX=0;entryY=0.5;entryDx=0;entryDy=0;" edge="1" parent="1">
          <mxGeometry relative="1" as="geometry">
            <mxPoint x="360" y="1215" as="sourcePoint" />
            <mxPoint x="480" y="1215" as="targetPoint" />
          </mxGeometry>
        </mxCell>
        <mxCell id="RW9XZ7OsWW9reIedTihO-56" value="&amp;lt;&amp;lt;Extends&amp;gt;&amp;gt;" style="edgeLabel;html=1;align=center;verticalAlign=middle;resizable=0;points=[];" vertex="1" connectable="0" parent="RW9XZ7OsWW9reIedTihO-55">
          <mxGeometry x="0.11" relative="1" as="geometry">
            <mxPoint x="-2" as="offset" />
          </mxGeometry>
        </mxCell>
        <mxCell id="RW9XZ7OsWW9reIedTihO-57" style="edgeStyle=orthogonalEdgeStyle;rounded=0;orthogonalLoop=1;jettySize=auto;html=1;entryX=0;entryY=0.5;entryDx=0;entryDy=0;" edge="1" parent="1">
          <mxGeometry relative="1" as="geometry">
            <mxPoint x="360" y="1215" as="sourcePoint" />
            <mxPoint x="480" y="1285" as="targetPoint" />
            <Array as="points">
              <mxPoint x="380" y="1215" />
              <mxPoint x="380" y="1285" />
            </Array>
          </mxGeometry>
        </mxCell>
        <mxCell id="RW9XZ7OsWW9reIedTihO-58" value="&amp;lt;&amp;lt;Extends&amp;gt;&amp;gt;" style="edgeLabel;html=1;align=center;verticalAlign=middle;resizable=0;points=[];" vertex="1" connectable="0" parent="RW9XZ7OsWW9reIedTihO-57">
          <mxGeometry x="0.0379" y="4" relative="1" as="geometry">
            <mxPoint x="36" y="4" as="offset" />
          </mxGeometry>
        </mxCell>
        <mxCell id="RW9XZ7OsWW9reIedTihO-59" style="edgeStyle=orthogonalEdgeStyle;rounded=0;orthogonalLoop=1;jettySize=auto;html=1;entryX=0;entryY=0.5;entryDx=0;entryDy=0;" edge="1" parent="1">
          <mxGeometry relative="1" as="geometry">
            <mxPoint x="360" y="1005" as="sourcePoint" />
            <mxPoint x="480" y="935" as="targetPoint" />
            <Array as="points">
              <mxPoint x="380" y="1005" />
              <mxPoint x="380" y="935" />
            </Array>
          </mxGeometry>
        </mxCell>
        <mxCell id="RW9XZ7OsWW9reIedTihO-60" value="&amp;lt;&amp;lt;Extends&amp;gt;&amp;gt;" style="edgeLabel;html=1;align=center;verticalAlign=middle;resizable=0;points=[];" vertex="1" connectable="0" parent="RW9XZ7OsWW9reIedTihO-59">
          <mxGeometry x="0.0042" y="-1" relative="1" as="geometry">
            <mxPoint x="40" y="-1" as="offset" />
          </mxGeometry>
        </mxCell>
        <mxCell id="RW9XZ7OsWW9reIedTihO-61" style="edgeStyle=orthogonalEdgeStyle;rounded=0;orthogonalLoop=1;jettySize=auto;html=1;entryX=0;entryY=0.5;entryDx=0;entryDy=0;" edge="1" parent="1">
          <mxGeometry relative="1" as="geometry">
            <mxPoint x="360" y="1005" as="sourcePoint" />
            <mxPoint x="480" y="1005" as="targetPoint" />
          </mxGeometry>
        </mxCell>
        <mxCell id="RW9XZ7OsWW9reIedTihO-62" value="&amp;lt;&amp;lt;Extends&amp;gt;&amp;gt;" style="edgeLabel;html=1;align=center;verticalAlign=middle;resizable=0;points=[];" vertex="1" connectable="0" parent="RW9XZ7OsWW9reIedTihO-61">
          <mxGeometry x="0.11" relative="1" as="geometry">
            <mxPoint x="-2" as="offset" />
          </mxGeometry>
        </mxCell>
        <mxCell id="RW9XZ7OsWW9reIedTihO-63" style="edgeStyle=orthogonalEdgeStyle;rounded=0;orthogonalLoop=1;jettySize=auto;html=1;entryX=0;entryY=0.5;entryDx=0;entryDy=0;" edge="1" parent="1">
          <mxGeometry relative="1" as="geometry">
            <mxPoint x="360" y="1005" as="sourcePoint" />
            <mxPoint x="480" y="1075" as="targetPoint" />
            <Array as="points">
              <mxPoint x="380" y="1005" />
              <mxPoint x="380" y="1075" />
            </Array>
          </mxGeometry>
        </mxCell>
        <mxCell id="RW9XZ7OsWW9reIedTihO-64" value="&amp;lt;&amp;lt;Extends&amp;gt;&amp;gt;" style="edgeLabel;html=1;align=center;verticalAlign=middle;resizable=0;points=[];" vertex="1" connectable="0" parent="RW9XZ7OsWW9reIedTihO-63">
          <mxGeometry x="0.0379" y="4" relative="1" as="geometry">
            <mxPoint x="36" y="4" as="offset" />
          </mxGeometry>
        </mxCell>
        <mxCell id="RW9XZ7OsWW9reIedTihO-65" style="edgeStyle=orthogonalEdgeStyle;rounded=0;orthogonalLoop=1;jettySize=auto;html=1;entryX=0;entryY=0.5;entryDx=0;entryDy=0;" edge="1" parent="1">
          <mxGeometry relative="1" as="geometry">
            <mxPoint x="360" y="795" as="sourcePoint" />
            <mxPoint x="480" y="725" as="targetPoint" />
            <Array as="points">
              <mxPoint x="380" y="795" />
              <mxPoint x="380" y="725" />
            </Array>
          </mxGeometry>
        </mxCell>
        <mxCell id="RW9XZ7OsWW9reIedTihO-66" value="&amp;lt;&amp;lt;Extends&amp;gt;&amp;gt;" style="edgeLabel;html=1;align=center;verticalAlign=middle;resizable=0;points=[];" vertex="1" connectable="0" parent="RW9XZ7OsWW9reIedTihO-65">
          <mxGeometry x="0.0042" y="-1" relative="1" as="geometry">
            <mxPoint x="40" y="-1" as="offset" />
          </mxGeometry>
        </mxCell>
        <mxCell id="RW9XZ7OsWW9reIedTihO-67" style="edgeStyle=orthogonalEdgeStyle;rounded=0;orthogonalLoop=1;jettySize=auto;html=1;entryX=0;entryY=0.5;entryDx=0;entryDy=0;" edge="1" parent="1">
          <mxGeometry relative="1" as="geometry">
            <mxPoint x="360" y="795" as="sourcePoint" />
            <mxPoint x="480" y="795" as="targetPoint" />
          </mxGeometry>
        </mxCell>
        <mxCell id="RW9XZ7OsWW9reIedTihO-68" value="&amp;lt;&amp;lt;Extends&amp;gt;&amp;gt;" style="edgeLabel;html=1;align=center;verticalAlign=middle;resizable=0;points=[];" vertex="1" connectable="0" parent="RW9XZ7OsWW9reIedTihO-67">
          <mxGeometry x="0.11" relative="1" as="geometry">
            <mxPoint x="-2" as="offset" />
          </mxGeometry>
        </mxCell>
        <mxCell id="RW9XZ7OsWW9reIedTihO-69" style="edgeStyle=orthogonalEdgeStyle;rounded=0;orthogonalLoop=1;jettySize=auto;html=1;entryX=0;entryY=0.5;entryDx=0;entryDy=0;" edge="1" parent="1">
          <mxGeometry relative="1" as="geometry">
            <mxPoint x="360" y="795" as="sourcePoint" />
            <mxPoint x="480" y="865" as="targetPoint" />
            <Array as="points">
              <mxPoint x="380" y="795" />
              <mxPoint x="380" y="865" />
            </Array>
          </mxGeometry>
        </mxCell>
        <mxCell id="RW9XZ7OsWW9reIedTihO-70" value="&amp;lt;&amp;lt;Extends&amp;gt;&amp;gt;" style="edgeLabel;html=1;align=center;verticalAlign=middle;resizable=0;points=[];" vertex="1" connectable="0" parent="RW9XZ7OsWW9reIedTihO-69">
          <mxGeometry x="0.0379" y="4" relative="1" as="geometry">
            <mxPoint x="36" y="4" as="offset" />
          </mxGeometry>
        </mxCell>
        <mxCell id="RW9XZ7OsWW9reIedTihO-71" style="edgeStyle=orthogonalEdgeStyle;rounded=0;orthogonalLoop=1;jettySize=auto;html=1;entryX=0;entryY=0.5;entryDx=0;entryDy=0;" edge="1" parent="1">
          <mxGeometry relative="1" as="geometry">
            <mxPoint x="360" y="585" as="sourcePoint" />
            <mxPoint x="480" y="515" as="targetPoint" />
            <Array as="points">
              <mxPoint x="380" y="585" />
              <mxPoint x="380" y="515" />
            </Array>
          </mxGeometry>
        </mxCell>
        <mxCell id="RW9XZ7OsWW9reIedTihO-72" value="&amp;lt;&amp;lt;Extends&amp;gt;&amp;gt;" style="edgeLabel;html=1;align=center;verticalAlign=middle;resizable=0;points=[];" vertex="1" connectable="0" parent="RW9XZ7OsWW9reIedTihO-71">
          <mxGeometry x="0.0042" y="-1" relative="1" as="geometry">
            <mxPoint x="40" y="-1" as="offset" />
          </mxGeometry>
        </mxCell>
        <mxCell id="RW9XZ7OsWW9reIedTihO-73" style="edgeStyle=orthogonalEdgeStyle;rounded=0;orthogonalLoop=1;jettySize=auto;html=1;entryX=0;entryY=0.5;entryDx=0;entryDy=0;" edge="1" parent="1">
          <mxGeometry relative="1" as="geometry">
            <mxPoint x="360" y="585" as="sourcePoint" />
            <mxPoint x="480" y="585" as="targetPoint" />
          </mxGeometry>
        </mxCell>
        <mxCell id="RW9XZ7OsWW9reIedTihO-74" value="&amp;lt;&amp;lt;Extends&amp;gt;&amp;gt;" style="edgeLabel;html=1;align=center;verticalAlign=middle;resizable=0;points=[];" vertex="1" connectable="0" parent="RW9XZ7OsWW9reIedTihO-73">
          <mxGeometry x="0.11" relative="1" as="geometry">
            <mxPoint x="-2" as="offset" />
          </mxGeometry>
        </mxCell>
        <mxCell id="RW9XZ7OsWW9reIedTihO-75" style="edgeStyle=orthogonalEdgeStyle;rounded=0;orthogonalLoop=1;jettySize=auto;html=1;entryX=0;entryY=0.5;entryDx=0;entryDy=0;" edge="1" parent="1">
          <mxGeometry relative="1" as="geometry">
            <mxPoint x="360" y="585" as="sourcePoint" />
            <mxPoint x="480" y="655" as="targetPoint" />
            <Array as="points">
              <mxPoint x="380" y="585" />
              <mxPoint x="380" y="655" />
            </Array>
          </mxGeometry>
        </mxCell>
        <mxCell id="RW9XZ7OsWW9reIedTihO-76" value="&amp;lt;&amp;lt;Extends&amp;gt;&amp;gt;" style="edgeLabel;html=1;align=center;verticalAlign=middle;resizable=0;points=[];" vertex="1" connectable="0" parent="RW9XZ7OsWW9reIedTihO-75">
          <mxGeometry x="0.0379" y="4" relative="1" as="geometry">
            <mxPoint x="36" y="4" as="offset" />
          </mxGeometry>
        </mxCell>
        <mxCell id="RW9XZ7OsWW9reIedTihO-84" value="" style="endArrow=none;html=1;rounded=0;entryX=0;entryY=0.5;entryDx=0;entryDy=0;strokeColor=default;endFill=0;" edge="1" parent="1" target="RW9XZ7OsWW9reIedTihO-30">
          <mxGeometry width="50" height="50" relative="1" as="geometry">
            <mxPoint x="90" y="240" as="sourcePoint" />
            <mxPoint x="510" y="290" as="targetPoint" />
          </mxGeometry>
        </mxCell>
        <mxCell id="RW9XZ7OsWW9reIedTihO-86" value="" style="endArrow=none;html=1;rounded=0;entryX=0;entryY=0.5;entryDx=0;entryDy=0;strokeColor=default;endFill=0;" edge="1" parent="1" target="RW9XZ7OsWW9reIedTihO-31">
          <mxGeometry width="50" height="50" relative="1" as="geometry">
            <mxPoint x="90" y="240" as="sourcePoint" />
            <mxPoint x="510" y="290" as="targetPoint" />
          </mxGeometry>
        </mxCell>
        <mxCell id="RW9XZ7OsWW9reIedTihO-87" value="" style="endArrow=none;html=1;rounded=0;entryX=0;entryY=0.5;entryDx=0;entryDy=0;strokeColor=default;endFill=0;" edge="1" parent="1" target="RW9XZ7OsWW9reIedTihO-32">
          <mxGeometry width="50" height="50" relative="1" as="geometry">
            <mxPoint x="90" y="240" as="sourcePoint" />
            <mxPoint x="250" y="385" as="targetPoint" />
          </mxGeometry>
        </mxCell>
        <mxCell id="RW9XZ7OsWW9reIedTihO-88" value="" style="endArrow=none;html=1;rounded=0;entryX=0;entryY=0.5;entryDx=0;entryDy=0;strokeColor=default;endFill=0;" edge="1" parent="1" target="RW9XZ7OsWW9reIedTihO-33">
          <mxGeometry width="50" height="50" relative="1" as="geometry">
            <mxPoint x="90" y="240" as="sourcePoint" />
            <mxPoint x="260" y="395" as="targetPoint" />
          </mxGeometry>
        </mxCell>
        <mxCell id="RW9XZ7OsWW9reIedTihO-89" value="" style="endArrow=none;html=1;rounded=0;entryX=0;entryY=0.5;entryDx=0;entryDy=0;strokeColor=default;endFill=0;" edge="1" parent="1" target="RW9XZ7OsWW9reIedTihO-34">
          <mxGeometry width="50" height="50" relative="1" as="geometry">
            <mxPoint x="90" y="240" as="sourcePoint" />
            <mxPoint x="270" y="405" as="targetPoint" />
          </mxGeometry>
        </mxCell>
        <mxCell id="RW9XZ7OsWW9reIedTihO-90" value="" style="endArrow=none;html=1;rounded=0;entryX=0;entryY=0.5;entryDx=0;entryDy=0;strokeColor=default;endFill=0;" edge="1" parent="1" target="RW9XZ7OsWW9reIedTihO-35">
          <mxGeometry width="50" height="50" relative="1" as="geometry">
            <mxPoint x="90" y="240" as="sourcePoint" />
            <mxPoint x="280" y="415" as="targetPoint" />
          </mxGeometry>
        </mxCell>
        <mxCell id="RW9XZ7OsWW9reIedTihO-94" style="edgeStyle=orthogonalEdgeStyle;rounded=0;orthogonalLoop=1;jettySize=auto;html=1;entryX=1;entryY=0.5;entryDx=0;entryDy=0;endArrow=none;endFill=0;" edge="1" parent="1" source="RW9XZ7OsWW9reIedTihO-93" target="RW9XZ7OsWW9reIedTihO-9">
          <mxGeometry relative="1" as="geometry" />
        </mxCell>
        <mxCell id="RW9XZ7OsWW9reIedTihO-95" style="edgeStyle=orthogonalEdgeStyle;rounded=0;orthogonalLoop=1;jettySize=auto;html=1;entryX=1;entryY=0.5;entryDx=0;entryDy=0;endArrow=none;endFill=0;" edge="1" parent="1" source="RW9XZ7OsWW9reIedTihO-93" target="RW9XZ7OsWW9reIedTihO-11">
          <mxGeometry relative="1" as="geometry" />
        </mxCell>
        <mxCell id="RW9XZ7OsWW9reIedTihO-96" style="edgeStyle=orthogonalEdgeStyle;rounded=0;orthogonalLoop=1;jettySize=auto;html=1;entryX=1;entryY=0.5;entryDx=0;entryDy=0;endArrow=none;endFill=0;" edge="1" parent="1" source="RW9XZ7OsWW9reIedTihO-93" target="RW9XZ7OsWW9reIedTihO-12">
          <mxGeometry relative="1" as="geometry" />
        </mxCell>
        <mxCell id="RW9XZ7OsWW9reIedTihO-97" style="edgeStyle=orthogonalEdgeStyle;rounded=0;orthogonalLoop=1;jettySize=auto;html=1;entryX=1;entryY=0.5;entryDx=0;entryDy=0;endArrow=none;endFill=0;" edge="1" parent="1" source="RW9XZ7OsWW9reIedTihO-93" target="RW9XZ7OsWW9reIedTihO-13">
          <mxGeometry relative="1" as="geometry" />
        </mxCell>
        <mxCell id="RW9XZ7OsWW9reIedTihO-98" style="edgeStyle=orthogonalEdgeStyle;rounded=0;orthogonalLoop=1;jettySize=auto;html=1;entryX=1;entryY=0.5;entryDx=0;entryDy=0;endArrow=none;endFill=0;" edge="1" parent="1" source="RW9XZ7OsWW9reIedTihO-93" target="RW9XZ7OsWW9reIedTihO-25">
          <mxGeometry relative="1" as="geometry" />
        </mxCell>
        <mxCell id="RW9XZ7OsWW9reIedTihO-99" style="edgeStyle=orthogonalEdgeStyle;rounded=0;orthogonalLoop=1;jettySize=auto;html=1;entryX=1;entryY=0.5;entryDx=0;entryDy=0;endArrow=none;endFill=0;" edge="1" parent="1" source="RW9XZ7OsWW9reIedTihO-93" target="RW9XZ7OsWW9reIedTihO-29">
          <mxGeometry relative="1" as="geometry" />
        </mxCell>
        <mxCell id="RW9XZ7OsWW9reIedTihO-100" style="edgeStyle=orthogonalEdgeStyle;rounded=0;orthogonalLoop=1;jettySize=auto;html=1;entryX=1;entryY=0.5;entryDx=0;entryDy=0;endArrow=none;endFill=0;" edge="1" parent="1" source="RW9XZ7OsWW9reIedTihO-93" target="RW9XZ7OsWW9reIedTihO-28">
          <mxGeometry relative="1" as="geometry" />
        </mxCell>
        <mxCell id="RW9XZ7OsWW9reIedTihO-101" style="edgeStyle=orthogonalEdgeStyle;rounded=0;orthogonalLoop=1;jettySize=auto;html=1;entryX=1;entryY=0.5;entryDx=0;entryDy=0;endArrow=none;endFill=0;" edge="1" parent="1" source="RW9XZ7OsWW9reIedTihO-93" target="RW9XZ7OsWW9reIedTihO-27">
          <mxGeometry relative="1" as="geometry" />
        </mxCell>
        <mxCell id="RW9XZ7OsWW9reIedTihO-102" style="edgeStyle=orthogonalEdgeStyle;rounded=0;orthogonalLoop=1;jettySize=auto;html=1;entryX=1;entryY=0.5;entryDx=0;entryDy=0;endArrow=none;endFill=0;" edge="1" parent="1" source="RW9XZ7OsWW9reIedTihO-93" target="RW9XZ7OsWW9reIedTihO-26">
          <mxGeometry relative="1" as="geometry" />
        </mxCell>
        <mxCell id="RW9XZ7OsWW9reIedTihO-103" style="edgeStyle=orthogonalEdgeStyle;rounded=0;orthogonalLoop=1;jettySize=auto;html=1;entryX=1;entryY=0.5;entryDx=0;entryDy=0;endArrow=none;endFill=0;" edge="1" parent="1" source="RW9XZ7OsWW9reIedTihO-93" target="RW9XZ7OsWW9reIedTihO-24">
          <mxGeometry relative="1" as="geometry" />
        </mxCell>
        <mxCell id="RW9XZ7OsWW9reIedTihO-104" style="edgeStyle=orthogonalEdgeStyle;rounded=0;orthogonalLoop=1;jettySize=auto;html=1;entryX=1;entryY=0.5;entryDx=0;entryDy=0;endArrow=none;endFill=0;" edge="1" parent="1" source="RW9XZ7OsWW9reIedTihO-93" target="RW9XZ7OsWW9reIedTihO-19">
          <mxGeometry relative="1" as="geometry" />
        </mxCell>
        <mxCell id="RW9XZ7OsWW9reIedTihO-105" style="edgeStyle=orthogonalEdgeStyle;rounded=0;orthogonalLoop=1;jettySize=auto;html=1;entryX=1;entryY=0.5;entryDx=0;entryDy=0;endArrow=none;endFill=0;" edge="1" parent="1" source="RW9XZ7OsWW9reIedTihO-93" target="RW9XZ7OsWW9reIedTihO-23">
          <mxGeometry relative="1" as="geometry" />
        </mxCell>
        <mxCell id="RW9XZ7OsWW9reIedTihO-106" style="edgeStyle=orthogonalEdgeStyle;rounded=0;orthogonalLoop=1;jettySize=auto;html=1;entryX=1;entryY=0.5;entryDx=0;entryDy=0;endArrow=none;endFill=0;" edge="1" parent="1" source="RW9XZ7OsWW9reIedTihO-93" target="RW9XZ7OsWW9reIedTihO-22">
          <mxGeometry relative="1" as="geometry" />
        </mxCell>
        <mxCell id="RW9XZ7OsWW9reIedTihO-107" style="edgeStyle=orthogonalEdgeStyle;rounded=0;orthogonalLoop=1;jettySize=auto;html=1;entryX=1;entryY=0.5;entryDx=0;entryDy=0;endArrow=none;endFill=0;" edge="1" parent="1" source="RW9XZ7OsWW9reIedTihO-93" target="RW9XZ7OsWW9reIedTihO-21">
          <mxGeometry relative="1" as="geometry" />
        </mxCell>
        <mxCell id="RW9XZ7OsWW9reIedTihO-108" style="edgeStyle=orthogonalEdgeStyle;rounded=0;orthogonalLoop=1;jettySize=auto;html=1;entryX=1;entryY=0.5;entryDx=0;entryDy=0;endArrow=none;endFill=0;" edge="1" parent="1" source="RW9XZ7OsWW9reIedTihO-93" target="RW9XZ7OsWW9reIedTihO-20">
          <mxGeometry relative="1" as="geometry" />
        </mxCell>
        <mxCell id="RW9XZ7OsWW9reIedTihO-109" style="edgeStyle=orthogonalEdgeStyle;rounded=0;orthogonalLoop=1;jettySize=auto;html=1;entryX=1;entryY=0.5;entryDx=0;entryDy=0;endArrow=none;endFill=0;" edge="1" parent="1" source="RW9XZ7OsWW9reIedTihO-93" target="RW9XZ7OsWW9reIedTihO-18">
          <mxGeometry relative="1" as="geometry" />
        </mxCell>
        <mxCell id="RW9XZ7OsWW9reIedTihO-110" style="edgeStyle=orthogonalEdgeStyle;rounded=0;orthogonalLoop=1;jettySize=auto;html=1;entryX=1;entryY=0.5;entryDx=0;entryDy=0;endArrow=none;endFill=0;" edge="1" parent="1" source="RW9XZ7OsWW9reIedTihO-93" target="RW9XZ7OsWW9reIedTihO-10">
          <mxGeometry relative="1" as="geometry" />
        </mxCell>
        <mxCell id="RW9XZ7OsWW9reIedTihO-111" style="edgeStyle=orthogonalEdgeStyle;rounded=0;orthogonalLoop=1;jettySize=auto;html=1;entryX=1;entryY=0.5;entryDx=0;entryDy=0;endArrow=none;endFill=0;" edge="1" parent="1" source="RW9XZ7OsWW9reIedTihO-93" target="RW9XZ7OsWW9reIedTihO-14">
          <mxGeometry relative="1" as="geometry" />
        </mxCell>
        <mxCell id="RW9XZ7OsWW9reIedTihO-93" value="Server" style="whiteSpace=wrap;html=1;aspect=fixed;" vertex="1" parent="1">
          <mxGeometry x="670" y="200" width="130" height="130" as="geometry" />
        </mxCell>
      </root>
    </mxGraphModel>
  </diagram>
</mxfile>
